<mxfile host="app.diagrams.net" modified="2023-05-17T13:45:09.496Z" agent="Mozilla/5.0 (Windows NT 10.0; Win64; x64) AppleWebKit/537.36 (KHTML, like Gecko) Chrome/113.0.0.0 Safari/537.36" version="21.3.2" etag="Wwuulm1AHRbO8ScpZ6Hi" type="github">
  <diagram name="PÃ¡gina-1" id="ARmon9NlFefN5yiYwIpU">
    <mxGraphModel>
      <root>
        <mxCell id="0" />
        <mxCell id="1" parent="0" />
      </root>
    </mxGraphModel>
  </diagram>
</mxfile>
